<?xml version="1.0" encoding="utf-8"?>
<!-- Generator: Adobe Illustrator 27.5.0, SVG Export Plug-In . SVG Version: 6.00 Build 0)  -->
<svg version="1.1" id="Layer_1" xmlns="http://www.w3.org/2000/svg" xmlns:xlink="http://www.w3.org/1999/xlink" x="0px" y="0px"
	 viewBox="0 0 194 58.8" style="enable-background:new 0 0 194 58.8;" xml:space="preserve">
<style type="text/css">
	.st0{fill:#231F20;}
	.st1{fill:none;}
</style>
<path class="st0" d="M8.2,25.2C2.7,26.1,0,22.7,0,17.4c0-4.7,3.2-9.6,8.4-10.5c3.9-0.6,5.9,1.2,5.9,3.5c0,1.3-0.6,2.2-2,2.4
	c-0.8,0.1-2.1-0.1-2.1-1.6c0-1.6,0.5-1.7,0.5-2.4c-0.2-1.1-0.9-1.2-2.3-1c-2.2,0.3-4.6,2.8-4.6,8.6c0,4.5,2,7.5,5.3,7
	c2.7-0.4,4.1-1.8,5.4-4.2c0.2,0.1,0.5,0.3,0.7,0.4C13.9,22.3,11.2,24.7,8.2,25.2"/>
<path class="st0" d="M25.1,22.2c-4.4,0.6-8.3-2.2-8.3-7.6s3.4-9.4,8.6-10.1c5.1-0.7,8.4,2.7,8.4,7.6S30.6,21.5,25.1,22.2 M25.3,5.4
	c-3.8,0.5-4.8,4.9-4.8,8.4c0,4.4,1.4,8,4.8,7.6c3.3-0.4,4.7-4.3,4.7-8.7C30,8.7,28.9,4.9,25.3,5.4"/>
<path class="st0" d="M44.5,20.1c-4.4,0.4-8.3-2.5-8.3-7.9s3.4-9.3,8.6-9.8c5.2-0.5,8.4,3,8.4,7.9S50.1,19.5,44.5,20.1 M44.8,3.2
	c-3.8,0.4-4.8,4.7-4.8,8.2c0,4.4,1.4,8.1,4.8,7.7c3.3-0.3,4.7-4.1,4.7-8.6C49.5,6.8,48.3,2.9,44.8,3.2"/>
<path class="st0" d="M65,18.4c-2.2,0.1-3.4-0.3-4.2-0.9c0,0-0.1,0-0.2,0v6c0,0.8,0.4,1.5,1,1.7c0.5,0.2,1.9,0.4,2.6,0.4v0.7
	c-3.3,0.2-6.6,0.4-9.9,0.7v-0.7c0.7-0.1,1.5-0.3,2-0.5c0.7-0.3,1-1,1-1.8V5.1c-0.1-0.8-0.4-1.4-1-1.8c-0.4-0.3-1.4-0.5-2-0.5V2.2
	c2-0.3,4-0.6,6-0.8c0.1,0.1,0.2,0.1,0.3,0.2v1.9c0.1,0,0.1,0,0.2,0c0.8-1,2.7-2.6,5-2.7c4.2-0.2,7.7,3.2,7.7,8.6
	C73.3,14.4,69.3,18.1,65,18.4 M64.4,2.3c-1.8,0.1-3,1-3.8,2.1v10.5c0.4,1.1,1.7,2.8,4.1,2.7c2.8-0.2,4.9-3.1,4.9-8.1
	C69.6,5.8,68.1,2.1,64.4,2.3"/>
<path class="st0" d="M83.9,17.6c-5.6,0.1-8.2-3.8-8.2-8.7c0-4.4,2.8-8.8,7.8-8.9c5.1-0.1,6.9,3.2,6.9,6.9v0.3c-3.7,0-7.3,0.1-11,0.2
	V8c0,4.8,1.6,8.1,5.5,8c2.9-0.1,3.8-1.1,5.2-3.4c0.2,0.1,0.4,0.3,0.7,0.4C89.5,15.7,87,17.5,83.9,17.6 M83.4,0.9
	c-2.3,0.1-4,2.4-4.1,5.9c2.5-0.1,4.9-0.2,7.4-0.3C86.8,3.9,86.2,0.8,83.4,0.9"/>
<path class="st0" d="M104,4.6c-1.2,0-2-0.5-2-1.8c0-0.4,0.3-0.7,0.3-1.1c-1.9,0-3.3,1.6-3.7,2.4v10.2c0,0.8,0.3,1.4,1,1.7
	c0.6,0.3,1.7,0.4,2.4,0.5V17c-3.1,0-6.3,0-9.4,0v-0.7c0.7,0,1.1-0.1,1.6-0.3c0.7-0.2,1-0.9,1-1.7V3.8c-0.1-0.8-0.4-1.5-1-1.9
	c-0.4-0.3-1.2-0.5-1.8-0.6V0.6c2-0.2,3.9-0.3,5.9-0.4c0.1,0.1,0.2,0.2,0.3,0.3v2.5h0.1c1.6-2,3.4-2.9,5-2.9c1.2,0,2.3,1.1,2.3,2.3
	C106,3.6,105.3,4.6,104,4.6"/>
<path class="st0" d="M123.5,18.1c-5.4-0.3-8-4.1-8-9.2c0-4.5,3.1-8.6,8.2-8.4c3.8,0.2,5.7,2.3,5.7,4.6c0,1.2-0.6,2-1.9,2
	c-0.7,0-2.1-0.5-2.1-1.9c0-1.5,0.5-1.6,0.5-2.3c-0.2-1.1-0.9-1.4-2.2-1.4c-2.2-0.1-4.5,1.7-4.5,7.3c0,4.3,1.9,7.6,5.2,7.8
	c2.6,0.1,4-0.9,5.2-3c0.2,0.2,0.5,0.4,0.7,0.6C129,16.4,126.4,18.2,123.5,18.1"/>
<path class="st0" d="M143.4,6.4c-1.2-0.1-2-0.7-2-1.9c0-0.4,0.3-0.6,0.3-1.1c-1.9-0.2-3.2,1.3-3.7,2.1v10.2c0,0.8,0.3,1.4,1,1.7
	c0.6,0.3,1.7,0.5,2.4,0.6v0.7c-3.1-0.2-6.2-0.5-9.4-0.7v-0.7c0.7,0,1.1,0,1.6-0.1c0.7-0.2,1-0.8,1-1.6V5.1c-0.1-0.8-0.4-1.6-1-2
	c-0.4-0.3-1.1-0.6-1.8-0.7V1.6c2,0,3.9,0,5.9,0c0.1,0.1,0.2,0.2,0.3,0.3v2.5c0,0,0.1,0,0.1,0c1.6-1.9,3.4-2.7,5-2.6
	c1.1,0.1,2.3,1.2,2.3,2.4C145.3,5.6,144.6,6.5,143.4,6.4"/>
<path class="st0" d="M171,8.2c-1.6,3.8-2.3,5.6-4,9.5c-0.5,1.2-0.9,2.2-1.4,3.7c-0.4,0-0.7-0.1-1-0.1c-1.6-4.6-3.1-8.7-4.5-12.5
	c-1.1,2.3-2.1,5.1-3.2,7.7c-0.5,1.2-0.9,2.2-1.4,3.8c-0.4,0-0.7-0.1-1.1-0.1c-2.6-6.9-3.7-9.6-5.8-14.9c-0.4-1-1.7-1.9-2.7-2.1V2.5
	c2.6,0.2,5.3,0.5,8,0.7v0.9c-0.9-0.1-2,0-2,0.6c0,0,0.1,0.3,0.3,0.8c0.7,2,2.4,6.4,4,10.4c0,0,0.1,0,0.1,0c1.1-2.8,2.3-5.5,3.4-8.3
	c-0.1-0.2-0.4-0.8-0.7-1.5c-0.5-1.1-1.4-1.6-2.4-1.8V3.5c2.5,0.3,5.1,0.6,7.6,0.9v0.8c-0.9-0.1-1.9-0.1-1.9,0.5c0,0,0.1,0.4,0.2,0.9
	c0.7,2,2.4,6.7,3.8,10.5c0,0,0.1,0,0.1,0c1.5-3.6,2.5-6.2,3.5-9.1c0.1-0.3,0.2-0.7,0.2-0.9c0-0.9-2.1-1.5-2.6-1.6V4.8
	c2.2,0.3,4.4,0.6,6.6,0.9v0.7C173,6.3,171.5,7,171,8.2"/>
<path class="st0" d="M185.4,24v-0.8c0.6,0.1,1.2,0.1,1.7,0c0.7-0.1,1-0.7,1-1.5v-8.9c0-2.5-1.5-4.2-3-4.4c-2.7-0.4-4.2,1.1-4.6,1.9
	v10.1c0,0.8,0.3,1.4,1,1.8c0.6,0.3,1.1,0.6,1.7,0.7v0.7c-2.9-0.4-5.8-0.9-8.6-1.3v-0.7c0.7,0.1,1.1,0,1.6,0c0.7-0.1,1-0.7,1-1.5V9.5
	c-0.1-0.8-0.4-1.6-1-2.1c-0.4-0.4-1.1-0.9-1.8-1V5.7c2.1,0.2,4,0.4,5.9,0.7l0.3,0.3v2.4h0c1.4-1.2,2.8-2.6,6-2.1
	c3.4,0.6,5,3.2,5,6.6v8.5c0,0.8,0.3,1.4,0.9,1.8c0.5,0.3,0.9,0.5,1.6,0.7v0.7C191.1,24.9,188.2,24.4,185.4,24"/>
<g>
	<path class="st1" d="M117,41.9L97.9,28.6c-0.3,0.3-0.6,0.4-1,0.4c-0.4,0-0.7-0.2-1-0.4L76.8,41.9c0.1,0.2,0.1,0.4,0.1,0.6
		c0,0.2,0,0.4-0.1,0.6l19.1,13.2c0.3-0.3,0.6-0.4,1-0.4c0.4,0,0.8,0.2,1,0.4L117,43c-0.1-0.2-0.1-0.4-0.1-0.6
		C116.9,42.2,116.9,42,117,41.9z M94.3,33.5c0.8-0.7,1.7-1.1,2.8-1.1c1,0,2,0.1,2.7,0.5v1.4c-0.4-0.3-0.8-0.5-1.3-0.6
		c-0.5-0.1-1-0.2-1.4-0.2c-0.8,0-1.4,0.3-1.9,0.8c-0.5,0.5-0.8,1.2-0.8,1.9c0,0.8,0.3,1.4,0.8,1.9c0.5,0.5,1.1,0.8,1.9,0.8
		c1.1,0,2-0.3,2.8-0.9v1.4c0,0,0,0,0,0l0,0v0c-1,0.4-1.9,0.6-2.8,0.6c-1.1,0-2-0.4-2.8-1.1c-0.8-0.7-1.2-1.6-1.2-2.7
		S93.5,34.2,94.3,33.5z M97.1,52.5c-1.1,0-2-0.4-2.8-1.1c-0.8-0.7-1.2-1.6-1.2-2.7s0.4-1.9,1.2-2.7c0.8-0.7,1.7-1.1,2.8-1.1
		c1,0,2,0.1,2.7,0.5v1.4c-0.4-0.3-0.8-0.5-1.3-0.6C98,46,97.5,46,97.1,46c-0.8,0-1.4,0.3-1.9,0.8c-0.5,0.5-0.8,1.2-0.8,1.9
		s0.3,1.4,0.8,1.9c0.5,0.5,1.1,0.8,1.9,0.8c1.1,0,2-0.3,2.8-0.9v1.4h0C98.9,52.3,98,52.5,97.1,52.5z M101.6,43h-9.3v-1.2h9.3V43z"/>
	<path class="st0" d="M97.1,40c0.9,0,1.8-0.2,2.8-0.6V38c-0.8,0.6-1.8,0.9-2.8,0.9c-0.8,0-1.4-0.3-1.9-0.8c-0.5-0.5-0.8-1.1-0.8-1.9
		c0-0.8,0.2-1.4,0.8-1.9c0.5-0.5,1.1-0.8,1.9-0.8c0.5,0,0.9,0.1,1.4,0.2c0.5,0.1,1,0.3,1.3,0.6v-1.4c-0.8-0.3-1.7-0.5-2.7-0.5
		c-1.1,0-2,0.4-2.8,1.1c-0.8,0.7-1.2,1.6-1.2,2.7s0.4,1.9,1.2,2.7C95,39.6,96,40,97.1,40z"/>
	<polygon class="st0" points="99.9,39.3 99.9,39.4 99.9,39.4 	"/>
	<path class="st0" d="M99.9,50.5c-0.8,0.6-1.8,0.9-2.8,0.9c-0.8,0-1.4-0.3-1.9-0.8c-0.5-0.5-0.8-1.1-0.8-1.9s0.2-1.4,0.8-1.9
		c0.5-0.5,1.1-0.8,1.9-0.8c0.5,0,0.9,0.1,1.4,0.2c0.5,0.2,1,0.4,1.3,0.6v-1.4c-0.8-0.4-1.7-0.5-2.7-0.5c-1.1,0-2,0.4-2.8,1.1
		c-0.8,0.7-1.2,1.6-1.2,2.7s0.4,2,1.2,2.7c0.8,0.7,1.7,1.1,2.8,1.1c0.9,0,1.8-0.2,2.8-0.6h0V50.5z"/>
	<rect x="92.3" y="41.9" class="st0" width="9.3" height="1.2"/>
	<path class="st0" d="M118.4,40.9c-0.3,0-0.5,0.1-0.8,0.2L98.4,27.7c0-0.1,0-0.1,0-0.2c0-0.8-0.7-1.5-1.5-1.5
		c-0.8,0-1.5,0.7-1.5,1.5c0,0,0,0.1,0,0.1L76.2,41.1c-0.2-0.1-0.5-0.2-0.8-0.2c-0.8,0-1.5,0.7-1.5,1.5s0.7,1.5,1.5,1.5
		c0.3,0,0.5-0.1,0.8-0.2c2.9,2,16.9,11.8,19.2,13.5c0,0,0,0.1,0,0.1c0,0.8,0.7,1.5,1.5,1.5c0.8,0,1.5-0.7,1.5-1.5c0,0,0-0.1,0-0.1
		l19.2-13.5c0.2,0.1,0.5,0.2,0.8,0.2c0.8,0,1.5-0.7,1.5-1.5S119.2,40.9,118.4,40.9z M97.9,56.2c-0.3-0.3-0.6-0.4-1-0.4
		c-0.4,0-0.7,0.2-1,0.4L76.8,43c0.1-0.2,0.1-0.4,0.1-0.6c0-0.2,0-0.4-0.1-0.6l19.1-13.2c0.3,0.3,0.6,0.4,1,0.4c0.4,0,0.8-0.2,1-0.4
		L117,41.9c-0.1,0.2-0.1,0.4-0.1,0.6c0,0.2,0,0.4,0.1,0.6L97.9,56.2z"/>
</g>
</svg>
