<?xml version="1.0" encoding="UTF-8"?>
<svg id="Layer_1" data-name="Layer 1" xmlns="http://www.w3.org/2000/svg" viewBox="0 0 10.21 22.16">
  <path d="m5.29,8.37c.96.01,1.98-.22,3.06-.69v-1.55c-.89.7-1.92,1.04-3.11,1-.83-.02-1.52-.32-2.09-.89-.56-.57-.84-1.26-.84-2.09s.28-1.53.86-2.1c.57-.57,1.27-.85,2.1-.85.49,0,1,.07,1.55.23.6.16,1.09.38,1.48.66V.54C7.45.14,6.45-.04,5.29,0c-1.21,0-2.25.43-3.09,1.24-.84.82-1.27,1.79-1.27,2.93s.43,2.14,1.27,2.94c.85.81,1.89,1.23,3.09,1.25Z"/>
  <path d="m3.14,20.03c-.56-.57-.84-1.27-.84-2.09s.28-1.52.86-2.1c.57-.56,1.27-.85,2.1-.85.49,0,1,.07,1.55.22.6.17,1.09.39,1.48.67v-1.57c-.84-.39-1.85-.56-3.01-.54-1.21.02-2.25.44-3.09,1.25-.84.81-1.27,1.79-1.27,2.93s.43,2.14,1.27,2.95c.85.8,1.89,1.22,3.09,1.25.96.01,1.98-.22,3.06-.7v-1.55c-.89.71-1.92,1.03-3.11,1-.83-.02-1.52-.32-2.09-.88Z"/>
  <rect y="10.45" width="10.21" height="1.27"/>
</svg>