<?xml version="1.0" encoding="utf-8"?>
<!-- Generator: Adobe Illustrator 27.5.0, SVG Export Plug-In . SVG Version: 6.00 Build 0)  -->
<svg version="1.1" id="Layer_1" xmlns="http://www.w3.org/2000/svg" xmlns:xlink="http://www.w3.org/1999/xlink" x="0px" y="0px"
	 viewBox="0 0 194 58.8" style="enable-background:new 0 0 194 58.8;" xml:space="preserve">
<style type="text/css">
	.st0{fill:none;}
	.st1{fill:#FFFFFF;}
</style>
<g>
	<path class="st0" d="M64.4,2.3L64.4,2.3c-1.8,0.1-2.9,1-3.8,2.1v10.5c0.4,1.2,1.7,2.8,4.1,2.7c2.8-0.2,4.9-3.1,4.9-8.1
		C69.5,5.8,68.1,2.1,64.4,2.3z"/>
	<path class="st0" d="M25.3,5.4c-3.8,0.5-4.8,4.9-4.8,8.4c0,4.4,1.4,8,4.8,7.6c3.3-0.4,4.7-4.3,4.7-8.7C30,8.7,28.9,4.9,25.3,5.4z"
		/>
	<path class="st0" d="M117,41.9L97.9,28.6c-0.3,0.3-0.6,0.4-1,0.4c-0.4,0-0.7-0.2-1-0.4L76.8,41.9c0.1,0.2,0.1,0.4,0.1,0.6
		c0,0.2,0,0.4-0.1,0.6l19.1,13.2c0.3-0.3,0.6-0.4,1-0.4c0.4,0,0.8,0.2,1,0.4L117,43c-0.1-0.2-0.1-0.4-0.1-0.6
		C116.9,42.2,116.9,42,117,41.9z M94.3,33.5c0.8-0.7,1.7-1.1,2.8-1.1c1,0,2,0.1,2.7,0.5v1.4c-0.4-0.3-0.8-0.5-1.3-0.6
		c-0.5-0.1-1-0.2-1.4-0.2c-0.8,0-1.4,0.3-1.9,0.8c-0.5,0.5-0.8,1.2-0.8,1.9c0,0.8,0.3,1.4,0.8,1.9c0.5,0.5,1.1,0.8,1.9,0.8
		c1.1,0,2-0.3,2.8-0.9v1.4c0,0,0,0,0,0l0,0v0c-1,0.4-1.9,0.6-2.8,0.6c-1.1,0-2-0.4-2.8-1.1c-0.8-0.7-1.2-1.6-1.2-2.7
		S93.5,34.2,94.3,33.5z M97.1,52.5c-1.1,0-2-0.4-2.8-1.1c-0.8-0.7-1.2-1.6-1.2-2.7s0.4-1.9,1.2-2.7c0.8-0.7,1.7-1.1,2.8-1.1
		c1,0,2,0.1,2.7,0.5v1.4c-0.4-0.3-0.8-0.5-1.3-0.6C98,46,97.5,46,97.1,46c-0.8,0-1.4,0.3-1.9,0.8c-0.5,0.5-0.8,1.2-0.8,1.9
		s0.3,1.4,0.8,1.9c0.5,0.5,1.1,0.8,1.9,0.8c1.1,0,2-0.3,2.8-0.9v1.4h0C98.9,52.3,98,52.5,97.1,52.5z M101.6,43h-9.3v-1.2h9.3V43z"/>
	<path class="st0" d="M83.4,0.9c-2.3,0-4,2.4-4.1,5.9c2.5-0.1,5-0.2,7.4-0.3C86.8,3.9,86.2,0.8,83.4,0.9z"/>
	<path class="st0" d="M44.8,3.2L44.8,3.2c-3.8,0.4-4.8,4.7-4.8,8.2c0,4.4,1.4,8.1,4.8,7.7c3.3-0.3,4.7-4.2,4.7-8.6
		C49.5,6.8,48.3,2.9,44.8,3.2z"/>
	<path class="st1" d="M9.2,23.3c-3.4,0.5-5.3-2.5-5.3-7c0-5.8,2.4-8.2,4.6-8.6c1.3-0.2,2.1-0.1,2.3,1c0,0.7-0.5,0.8-0.5,2.4
		c0,1.5,1.4,1.7,2.1,1.6c1.3-0.2,2-1.2,2-2.4c0-2.3-2-4.2-5.9-3.5C3.2,7.7,0,12.7,0,17.4c0,5.3,2.7,8.7,8.2,7.8v0
		c3-0.5,5.6-2.9,7-5.6c-0.2-0.1-0.5-0.3-0.7-0.4C13.3,21.5,11.8,22.9,9.2,23.3z"/>
	<path class="st1" d="M25.3,4.5c-5.1,0.7-8.6,4.6-8.6,10.1c0,5.4,3.9,8.2,8.3,7.6v0c5.5-0.7,8.6-5.2,8.6-10.1S30.5,3.9,25.3,4.5z
		 M25.3,21.3c-3.5,0.4-4.8-3.2-4.8-7.6c0-3.5,1-7.9,4.8-8.4c3.6-0.5,4.7,3.3,4.7,7.2C30,17,28.6,20.9,25.3,21.3z"/>
	<path class="st1" d="M44.8,2.4c-5.2,0.5-8.6,4.3-8.6,9.8c0,5.4,3.9,8.3,8.3,7.9v0c5.6-0.5,8.7-4.9,8.7-9.8
		C53.2,5.4,50,1.9,44.8,2.4z M44.8,19.2c-3.5,0.3-4.8-3.3-4.8-7.7c0-3.5,1-7.8,4.8-8.2v0c3.6-0.3,4.7,3.5,4.7,7.4
		C49.5,15,48,18.9,44.8,19.2z"/>
	<path class="st1" d="M65.6,0.8c-2.3,0.1-4.1,1.7-5,2.7c0,0-0.1,0-0.1,0V1.6c-0.1-0.1-0.2-0.1-0.3-0.2c-2,0.3-4,0.5-6,0.8v0.7
		c0.7,0,1.6,0.2,2,0.5c0.6,0.4,0.9,1,1,1.8V24c0,0.8-0.2,1.5-1,1.8c-0.5,0.2-1.4,0.4-2,0.5V27c3.3-0.2,6.6-0.5,9.9-0.7v-0.7
		c-0.7,0-2-0.2-2.5-0.4c-0.7-0.2-1-0.8-1-1.7v-6c0,0,0.1,0,0.2,0c0.8,0.6,2.1,1,4.2,0.9l0,0c4.3-0.2,8.4-4,8.4-9
		C73.3,3.9,69.9,0.5,65.6,0.8z M64.6,17.6c-2.4,0.2-3.7-1.5-4.1-2.7V4.4c0.9-1.1,2.1-2,3.8-2.1l0,0c3.7-0.2,5.2,3.5,5.2,7.1
		C69.5,14.5,67.4,17.5,64.6,17.6z"/>
	<path class="st1" d="M83.9,17.6c3.1-0.1,5.6-2,6.9-4.6c-0.2-0.1-0.4-0.3-0.7-0.4c-1.4,2.3-2.3,3.3-5.2,3.4c-4,0.1-5.5-3.2-5.5-8
		V7.6c3.7-0.1,7.4-0.2,11-0.2V7c0-3.8-1.8-7.1-6.9-7c-4.9,0.1-7.8,4.5-7.8,8.9C75.7,13.8,78.3,17.8,83.9,17.6z M83.4,0.9
		c2.8-0.1,3.4,2.9,3.4,5.6c-2.5,0.1-5,0.2-7.4,0.3C79.5,3.3,81.1,1,83.4,0.9z"/>
	<path class="st1" d="M95.2,3.8v10.6c0,0.8-0.3,1.4-1,1.7c-0.5,0.1-1,0.2-1.6,0.3V17c3.1,0,6.2,0,9.4,0v-0.7c-0.7,0-1.8-0.2-2.4-0.4
		c-0.7-0.3-1-0.9-1-1.7V4c0.4-0.8,1.8-2.4,3.7-2.4c0,0.5-0.3,0.8-0.3,1.2c0,1.3,0.8,1.8,2,1.8c1.3,0,2-1,2-2.3
		c0-1.2-1.2-2.3-2.3-2.3c-1.5,0-3.4,0.9-5,2.9h0V0.4c-0.1-0.1-0.2-0.2-0.3-0.3c-2,0.1-4,0.3-5.9,0.4v0.7c0.7,0,1.4,0.3,1.8,0.6
		C94.8,2.2,95.1,3,95.2,3.8z"/>
	<path class="st1" d="M124.4,16.5c-3.2-0.2-5.2-3.5-5.2-7.8c0-5.6,2.3-7.4,4.5-7.3c1.3,0,2,0.4,2.2,1.4c0,0.7-0.5,0.7-0.5,2.3
		c0,1.4,1.3,1.9,2.1,2c1.3,0.1,1.9-0.7,1.9-2c0-2.2-1.9-4.4-5.7-4.6c-5.1-0.2-8.2,3.9-8.2,8.4c0,5.1,2.7,8.9,8,9.2
		c2.9,0.1,5.5-1.7,6.8-4c-0.2-0.2-0.5-0.4-0.7-0.5C128.4,15.6,127,16.7,124.4,16.5z"/>
	<path class="st1" d="M143,1.8c-1.5-0.1-3.4,0.6-5,2.6c0,0-0.1,0-0.1,0V1.9c-0.1-0.1-0.2-0.2-0.3-0.3c-2,0-3.9,0-5.9,0v0.7
		c0.7,0.1,1.4,0.4,1.8,0.7c0.6,0.4,0.9,1.2,1,2v10.6c0,0.8-0.3,1.4-1,1.6c-0.5,0.1-1,0.2-1.6,0.2v0.7c3.1,0.2,6.2,0.4,9.4,0.7V18
		c-0.7-0.1-1.8-0.3-2.4-0.6c-0.7-0.3-1-0.9-1-1.7V5.5c0.4-0.8,1.8-2.3,3.7-2.1c0,0.5-0.3,0.8-0.3,1.1c0,1.3,0.8,1.8,2,1.9v0
		c1.3,0.1,2-0.9,2-2.2C145.3,3.1,144.2,1.9,143,1.8z"/>
	<path class="st1" d="M167.4,5.5c0.5,0.1,2.6,0.7,2.6,1.6c0,0.2-0.1,0.6-0.2,0.9c-1,2.9-2,5.4-3.5,9c0,0-0.1,0-0.1,0
		c-1.4-3.8-3.1-8.6-3.8-10.5c-0.2-0.5-0.2-0.8-0.2-0.9c0-0.6,1.1-0.6,1.9-0.5V4.4c-2.5-0.3-5.1-0.6-7.6-0.9v0.8c1,0.2,2,0.7,2.4,1.8
		c0.3,0.7,0.6,1.2,0.7,1.5c-1.1,2.8-2.2,5.5-3.3,8.3c0,0-0.1,0-0.1,0c-1.5-4.1-3.2-8.5-4-10.4c-0.2-0.5-0.3-0.8-0.3-0.8
		c0-0.6,1.1-0.6,2-0.6V3.2c-2.7-0.3-5.3-0.5-8-0.7v0.8c1,0.2,2.3,1,2.7,2.1c2.1,5.2,3.2,8,5.8,14.9c0.4,0,0.7,0.1,1.1,0.1
		c0.5-1.6,0.9-2.6,1.4-3.8c1.1-2.6,2.1-5.4,3.2-7.7c1.4,3.8,2.9,7.8,4.5,12.5c0.3,0,0.7,0.1,1,0.1c0.5-1.6,0.9-2.5,1.4-3.7
		c1.7-4,2.3-5.7,4-9.5l0,0c0.5-1.2,2-1.8,3-1.8V5.6c-2.2-0.3-4.4-0.6-6.6-0.9V5.5z"/>
	<path class="st1" d="M192.4,24c-0.7-0.4-0.9-1-0.9-1.8v-8.5c0-3.5-1.6-6.1-5-6.6c-3.1-0.5-4.5,1-6,2.1h0V6.7l-0.3-0.3
		c-1.8-0.3-3.7-0.5-5.9-0.7v0.7c0.7,0.1,1.4,0.6,1.8,1c0.6,0.5,0.9,1.3,1,2.1v10.6c0,0.8-0.3,1.4-1,1.5c-0.5,0.1-1,0.1-1.6,0v0.7
		c2.9,0.4,5.8,0.8,8.6,1.3v-0.7c-0.6-0.1-1.2-0.4-1.7-0.7c-0.7-0.4-1-1-1-1.8V10.3c0.4-0.8,1.9-2.3,4.6-1.9c1.6,0.2,3,1.9,3,4.4v8.9
		c0,0.8-0.3,1.4-1,1.5c-0.5,0.1-1.1,0.1-1.7,0V24h0c2.9,0.5,5.8,0.9,8.6,1.4v-0.7C193.3,24.5,192.9,24.3,192.4,24z"/>
	<path class="st1" d="M97.1,40c0.9,0,1.8-0.2,2.8-0.6V38c-0.8,0.6-1.8,0.9-2.8,0.9c-0.8,0-1.4-0.3-1.9-0.8c-0.5-0.5-0.8-1.1-0.8-1.9
		c0-0.8,0.2-1.4,0.8-1.9c0.5-0.5,1.1-0.8,1.9-0.8c0.5,0,0.9,0.1,1.4,0.2c0.5,0.1,1,0.3,1.3,0.6v-1.4c-0.8-0.3-1.7-0.5-2.7-0.5
		c-1.1,0-2,0.4-2.8,1.1c-0.8,0.7-1.2,1.6-1.2,2.7s0.4,1.9,1.2,2.7C95,39.6,96,40,97.1,40z"/>
	<polygon class="st1" points="99.9,39.3 99.9,39.4 99.9,39.4 	"/>
	<path class="st1" d="M99.9,50.5c-0.8,0.6-1.8,0.9-2.8,0.9c-0.8,0-1.4-0.3-1.9-0.8c-0.5-0.5-0.8-1.1-0.8-1.9s0.2-1.4,0.8-1.9
		c0.5-0.5,1.1-0.8,1.9-0.8c0.5,0,0.9,0.1,1.4,0.2c0.5,0.2,1,0.4,1.3,0.6v-1.4c-0.8-0.4-1.7-0.5-2.7-0.5c-1.1,0-2,0.4-2.8,1.1
		c-0.8,0.7-1.2,1.6-1.2,2.7s0.4,2,1.2,2.7c0.8,0.7,1.7,1.1,2.8,1.1c0.9,0,1.8-0.2,2.8-0.6h0V50.5z"/>
	<rect x="92.3" y="41.9" class="st1" width="9.3" height="1.2"/>
	<path class="st1" d="M118.4,40.9c-0.3,0-0.5,0.1-0.8,0.2L98.4,27.7c0-0.1,0-0.1,0-0.2c0-0.8-0.7-1.5-1.5-1.5
		c-0.8,0-1.5,0.7-1.5,1.5c0,0,0,0.1,0,0.1L76.2,41.1c-0.2-0.1-0.5-0.2-0.8-0.2c-0.8,0-1.5,0.7-1.5,1.5s0.7,1.5,1.5,1.5
		c0.3,0,0.5-0.1,0.8-0.2c2.9,2,16.9,11.8,19.2,13.5c0,0,0,0.1,0,0.1c0,0.8,0.7,1.5,1.5,1.5c0.8,0,1.5-0.7,1.5-1.5c0,0,0-0.1,0-0.1
		l19.2-13.5c0.2,0.1,0.5,0.2,0.8,0.2c0.8,0,1.5-0.7,1.5-1.5S119.2,40.9,118.4,40.9z M97.9,56.2c-0.3-0.3-0.6-0.4-1-0.4
		c-0.4,0-0.7,0.2-1,0.4L76.8,43c0.1-0.2,0.1-0.4,0.1-0.6c0-0.2,0-0.4-0.1-0.6l19.1-13.2c0.3,0.3,0.6,0.4,1,0.4c0.4,0,0.8-0.2,1-0.4
		L117,41.9c-0.1,0.2-0.1,0.4-0.1,0.6c0,0.2,0,0.4,0.1,0.6L97.9,56.2z"/>
</g>
</svg>
